<svg width="16" height="16" viewBox="0 0 16 16" fill="none" xmlns="http://www.w3.org/2000/svg">
    <path d="m11 8.801-2.334 1.555v2.398L12.798 10 11 8.8zM9.798 8 8 6.8 6.202 8 8 9.198 9.798 8zm3.535-.755L12.202 8l1.131.754V7.245zM12.798 6 8.666 3.246v2.397L11 7.198 12.798 6zM5 7.198l2.333-1.555V3.246L3.202 6 5 7.198zM3.202 10l4.131 2.754v-2.398L5 8.801 3.202 10zm-.536-1.246L3.798 8l-1.132-.755v1.51zM1.333 6a.667.667 0 0 1 .297-.555l6-4a.667.667 0 0 1 .74 0l6 4a.666.666 0 0 1 .296.555v4a.665.665 0 0 1-.296.554l-6 4a.667.667 0 0 1-.74 0l-6-4A.666.666 0 0 1 1.333 10V6z" fill="#737373"/>
</svg>
